# xmcd CD database file
#
# Track frame offsets:
#	150
#	33767
#	63922
#	102158
#	106482
#	132108
#	154436
#	181742
#	216775
#	237259
#	267404
#	278624
#	302755
#
# Disc length: 4410 seconds
#
# Revision: 0
# Processed by: cddbd v1.5.1PL2 Copyright (c) Steve Scherf et al.
# Submitted via: CDex 1.60beta1
#
DISCID=ae11380d
DTITLE=Manuel Valera - Melancolia
DYEAR=2004
DGENRE=Jazz
TTITLE0=De un pajaro las dos alas
TTITLE1=Alibi
TTITLE2=Yesterday's Song
TTITLE3=Intro to prelude
TTITLE4=Prelude in C# minor
TTITLE5=Hidden
TTITLE6=O Melancolia
TTITLE7=Peregrinations
TTITLE8=While She Sleeps
TTITLE9=(Or Not)
TTITLE10=Interlude
TTITLE11=Astorish
TTITLE12=La Otra Mano
EXTD=YEAR: 2004
EXTT0=
EXTT1=
EXTT2=
EXTT3=
EXTT4=
EXTT5=
EXTT6=
EXTT7=
EXTT8=
EXTT9=
EXTT10=
EXTT11=
EXTT12=
PLAYORDER=
